<?xml version="1.0" encoding="UTF-8" standalone="no"?>
<svg width="30px" height="30px" viewBox="0 0 30 30" version="1.1" xmlns="http://www.w3.org/2000/svg" xmlns:xlink="http://www.w3.org/1999/xlink" xmlns:sketch="http://www.bohemiancoding.com/sketch/ns">
    <!-- Generator: Sketch 3.2.2 (9983) - http://www.bohemiancoding.com/sketch -->
    <title>github</title>
    <desc>Created with Sketch.</desc>
    <defs></defs>
    <g id="Welcome" stroke="none" stroke-width="1" fill="none" fill-rule="evenodd" sketch:type="MSPage">
        <g id="Desktop-HD" sketch:type="MSArtboardGroup" transform="translate(-98.000000, -809.000000)" fill="#AFAAC1">
            <g id="github" sketch:type="MSLayerGroup" transform="translate(98.000000, 809.000000)">
                <path d="M15.021875,14.920625 C15.015,14.920625 15.0071875,14.9203125 15,14.92 C14.9925,14.9203125 14.9846875,14.920625 14.9778125,14.920625 C13.11625,14.920625 11.4759375,14.449375 10.5065625,15.339375 C9.925625,15.8734375 9.6809375,16.516875 9.6809375,17.2096875 C9.6809375,20.10375 11.9996875,20.4590625 14.9775,20.4590625 L15.021875,20.4590625 C17.9996875,20.4590625 20.3184375,20.1034375 20.3184375,17.2096875 C20.3184375,16.5165625 20.07375,15.8734375 19.4928125,15.339375 C18.5234375,14.449375 16.8834375,14.920625 15.021875,14.920625 L15.021875,14.920625 Z M12.49,18.8753125 C11.9234375,18.8753125 11.4640625,18.2390625 11.4640625,17.454375 C11.4640625,16.6696875 11.9234375,16.03375 12.49,16.03375 C13.0565625,16.03375 13.5165625,16.6696875 13.5165625,17.454375 C13.5165625,18.2390625 13.0565625,18.8753125 12.49,18.8753125 L12.49,18.8753125 Z M17.5096875,18.8753125 C16.9428125,18.8753125 16.483125,18.2390625 16.483125,17.454375 C16.483125,16.6696875 16.9428125,16.03375 17.5096875,16.03375 C18.0759375,16.03375 18.535625,16.6696875 18.535625,17.454375 C18.535625,18.2390625 18.07625,18.8753125 17.5096875,18.8753125 L17.5096875,18.8753125 Z M15,0 C6.7153125,0 0,6.715625 0,15 C0,23.284375 6.7153125,30 15,30 C23.2840625,30 30,23.284375 30,15 C30,6.715625 23.2840625,0 15,0 L15,0 Z M16.368125,21.1565625 C16.099375,21.1565625 15.565,21.1571875 15,21.1578125 C14.4346875,21.1571875 13.9,21.1565625 13.6315625,21.1565625 C12.443125,21.1565625 7.736875,21.065625 7.736875,15.3925 C7.736875,14.0871875 8.184375,13.1321875 8.9165625,12.336875 C8.7996875,12.0484375 8.79375,10.4103125 9.4171875,8.8421875 C9.4171875,8.8421875 10.8471875,8.9990625 13.0109375,10.48375 C13.464375,10.3584375 14.2321875,10.2959375 15,10.2959375 C15.7671875,10.2959375 16.535,10.358125 16.9890625,10.48375 C19.1525,8.9990625 20.5821875,8.8421875 20.5821875,8.8421875 C21.205625,10.4103125 21.2,12.0484375 21.083125,12.336875 C21.815625,13.1321875 22.263125,14.0875 22.263125,15.3925 C22.263125,21.065625 17.5565625,21.1565625 16.368125,21.1565625 L16.368125,21.1565625 Z" id="Shape" sketch:type="MSShapeGroup"></path>
            </g>
        </g>
    </g>
</svg>