<?xml version="1.0" encoding="UTF-8" standalone="no"?>
<svg width="30px" height="30px" viewBox="0 0 30 30" version="1.1" xmlns="http://www.w3.org/2000/svg" xmlns:xlink="http://www.w3.org/1999/xlink" xmlns:sketch="http://www.bohemiancoding.com/sketch/ns">
    <!-- Generator: Sketch 3.2.2 (9983) - http://www.bohemiancoding.com/sketch -->
    <title>hype</title>
    <desc>Created with Sketch.</desc>
    <defs></defs>
    <g id="Welcome" stroke="none" stroke-width="1" fill="none" fill-rule="evenodd" sketch:type="MSPage">
        <g id="Desktop-HD" sketch:type="MSArtboardGroup" transform="translate(-248.000000, -809.000000)">
            <g id="hype" sketch:type="MSLayerGroup" transform="translate(248.000000, 809.000000)">
                <circle id="Oval-3" fill="#AFAAC1" sketch:type="MSShapeGroup" cx="15" cy="15" r="15"></circle>
                <path d="M15,7.433319 C9.91743725,7.433319 5.79728061,10.5264559 5.79728061,14.3421071 C5.79728061,16.3945177 6.99117641,18.2371074 8.88428067,19.5025837 C8.71167915,20.4668239 8.38365299,21.6302519 7.75888993,22.566681 C8.57138837,22.566681 10.6184817,21.6175737 12.0682175,20.8903536 C12.989308,21.1226724 13.9744081,21.2504862 15,21.2504862 C20.0825581,21.2504862 24.2027194,18.1573521 24.2027194,14.3421071 C24.2027194,10.5264559 20.0825581,7.433319 15,7.433319 L15,7.433319 Z M19.4042168,14.4404749 C19.3729276,14.5717659 19.3156683,14.7116486 19.2258866,14.8613445 C19.0602378,15.1756702 18.836101,15.4537964 18.5675888,15.6822272 C17.2757301,17.0368682 14.9957069,18.5528622 14.9957069,18.5528622 C14.9957069,18.5528622 12.7156791,17.0354362 11.423618,15.6822272 C11.1551058,15.4539994 10.9311715,15.1756702 10.7651131,14.8613445 C10.675336,14.7116486 10.6182746,14.571563 10.58699,14.4404749 C10.4955748,14.1664379 10.4456777,13.8723596 10.4456777,13.5668286 C10.4456777,12.0354959 11.682113,10.793538 13.2081302,10.793538 C14.2349461,10.793538 14.9928403,11.9025677 14.9928403,12.6420574 C14.9928403,11.9025677 15.3769018,10.793538 16.7832837,10.793538 C18.3092962,10.793538 19.5459386,12.0354959 19.5459386,13.5668286 C19.5459386,13.8723596 19.4958345,14.1664379 19.4042168,14.4404749 L19.4042168,14.4404749 Z" id="Hype_Machine" fill="#665785" sketch:type="MSShapeGroup"></path>
            </g>
        </g>
    </g>
</svg>