<?xml version="1.0" encoding="UTF-8" standalone="no"?>
<svg width="30px" height="30px" viewBox="0 0 30 30" version="1.1" xmlns="http://www.w3.org/2000/svg" xmlns:xlink="http://www.w3.org/1999/xlink" xmlns:sketch="http://www.bohemiancoding.com/sketch/ns">
    <!-- Generator: Sketch 3.2.2 (9983) - http://www.bohemiancoding.com/sketch -->
    <title>intsa</title>
    <desc>Created with Sketch.</desc>
    <defs></defs>
    <g id="Welcome" stroke="none" stroke-width="1" fill="none" fill-rule="evenodd" sketch:type="MSPage">
        <g id="Desktop-HD" sketch:type="MSArtboardGroup" transform="translate(-135.000000, -809.000000)" fill="#AFAAC1">
            <g id="intsa" sketch:type="MSLayerGroup" transform="translate(135.000000, 809.000000)">
                <g id="Group" sketch:type="MSShapeGroup">
                    <path d="M21.3072,11.6352 L21.3072,9.267 L21.3072,8.913 L20.9532,8.9142 L18.585,8.9226 L18.594,11.6442 L21.3072,11.6352 Z" id="Shape"></path>
                    <path d="M15.135,17.9208 C16.6938,17.9208 17.9628,16.653 17.9628,15.0942 C17.9628,14.4792 17.7624,13.9092 17.427,13.4454 C16.914,12.7338 16.0782,12.2664 15.135,12.2664 C14.1918,12.2664 13.3572,12.7338 12.843,13.4454 C12.5076,13.9092 12.3084,14.4792 12.3084,15.0942 C12.3084,16.653 13.5762,17.9208 15.135,17.9208 L15.135,17.9208 Z" id="Shape"></path>
                    <path d="M15.2088,0.0948 C7.0488,0.0948 0.4338,6.7086 0.4338,14.8686 C0.4338,23.0286 7.0488,29.6436 15.2088,29.6436 C23.3676,29.6436 29.9826,23.0286 29.9826,14.8686 C29.9826,6.7086 23.367,0.0948 15.2088,0.0948 L15.2088,0.0948 Z M23.1666,13.4454 L23.1666,20.022 C23.1666,21.7332 21.7734,23.1252 20.0622,23.1252 L10.2072,23.1252 C8.4954,23.1252 7.1034,21.7332 7.1034,20.022 L7.1034,13.4454 L7.1034,10.167 C7.1034,8.4552 8.4954,7.0632 10.2072,7.0632 L20.0622,7.0632 C21.7734,7.0632 23.1666,8.4552 23.1666,10.167 L23.1666,13.4454 L23.1666,13.4454 Z" id="Shape"></path>
                    <path d="M19.527,15.0942 C19.527,17.5152 17.5572,19.4862 15.135,19.4862 C12.7128,19.4862 10.7442,17.5152 10.7442,15.0942 C10.7442,14.5104 10.86,13.9554 11.0664,13.4454 L8.6688,13.4454 L8.6688,20.022 C8.6688,20.8704 9.3588,21.5604 10.2072,21.5604 L20.0622,21.5604 C20.9106,21.5604 21.6006,20.8704 21.6006,20.022 L21.6006,13.4454 L19.2018,13.4454 C19.41,13.9554 19.527,14.511 19.527,15.0942 L19.527,15.0942 Z" id="Shape"></path>
                </g>
            </g>
        </g>
    </g>
</svg>