<?xml version="1.0" encoding="UTF-8" standalone="no"?>
<svg width="30px" height="30px" viewBox="0 0 30 30" version="1.1" xmlns="http://www.w3.org/2000/svg" xmlns:xlink="http://www.w3.org/1999/xlink" xmlns:sketch="http://www.bohemiancoding.com/sketch/ns">
    <!-- Generator: Sketch 3.2.2 (9983) - http://www.bohemiancoding.com/sketch -->
    <title>snap</title>
    <desc>Created with Sketch.</desc>
    <defs></defs>
    <g id="Welcome" stroke="none" stroke-width="1" fill="none" fill-rule="evenodd" sketch:type="MSPage">
        <g id="Desktop-HD" sketch:type="MSArtboardGroup" transform="translate(-173.000000, -809.000000)" fill="#AFAAC1" opacity="0.5">
            <path d="M188,839 C196.284271,839 203,832.284271 203,824 C203,815.715729 196.284271,809 188,809 C179.715729,809 173,815.715729 173,824 C173,832.284271 179.715729,839 188,839 Z M188.030412,815.454178 C186.944148,815.461615 185.820887,815.749908 184.940127,816.446329 C184.280552,816.966976 183.761951,817.656974 183.435039,818.42782 C183.434549,818.429687 183.434081,818.431562 183.433636,818.433442 C183.122282,819.227704 183.151116,820.073007 183.193327,820.856201 C183.193349,820.856677 183.193305,820.857132 183.193327,820.857604 C183.218981,821.408087 183.279634,821.941013 183.22846,822.447012 C183.224327,822.46671 183.224143,822.471645 183.221434,822.483551 C182.976565,822.527936 182.710035,822.511838 182.445701,822.461066 C182.444298,822.461052 182.44289,822.461052 182.441487,822.461066 C182.260421,822.429899 182.066978,822.355283 181.848445,822.293833 C181.844722,822.292799 181.840974,822.291864 181.837203,822.291023 C181.625109,822.242534 181.416624,822.304289 181.256809,822.423122 C181.254754,822.424453 181.251869,822.425978 181.249782,822.427336 C181.246589,822.429764 181.243097,822.431889 181.239945,822.434362 C181.109862,822.520507 180.931677,822.665147 180.922344,822.916385 C180.92194,822.932868 180.923356,822.949396 180.926558,822.965571 C180.954648,823.113207 181.045462,823.221154 181.126112,823.291603 C181.206762,823.362052 181.282958,823.408579 181.329883,823.444782 C181.333543,823.44771 181.337291,823.450521 181.341125,823.453214 C181.736724,823.720117 182.174546,823.837392 182.555315,823.985828 C182.55572,823.985963 182.556327,823.985693 182.556718,823.985828 C182.820335,824.102629 183.049406,824.284253 183.10198,824.51282 C183.167626,824.801848 183.045911,825.133657 182.886967,825.455785 C182.886787,825.456189 182.887147,825.456801 182.886967,825.457188 C182.458253,826.310973 181.821587,827.053447 181.038981,827.597479 C180.628686,827.88057 180.16582,828.091902 179.682852,828.22285 C179.676189,828.224887 179.669622,828.22723 179.663177,828.229877 C179.564075,828.267195 179.329084,828.291596 179.181155,828.51656 C179.170641,828.532271 179.16212,828.549314 179.155859,828.567152 C179.105977,828.711811 179.162884,828.867128 179.233151,828.952207 C179.300251,829.033451 179.375107,829.080725 179.439732,829.115224 C179.443038,829.117157 179.446258,829.118929 179.44957,829.120845 C179.856223,829.355862 180.300339,829.457741 180.705919,829.562113 C180.707786,829.562603 180.709661,829.563071 180.711541,829.563516 C181.00376,829.630061 181.273159,829.665611 181.492894,829.76026 C181.503653,829.778353 181.525656,829.852822 181.577213,829.976678 C181.649233,830.201514 181.681972,830.467017 181.765525,830.745384 C181.788372,830.822437 181.855566,830.884591 181.934163,830.901374 C182.11872,830.940584 182.220225,830.877262 182.236305,830.876078 C182.243841,830.87552 182.251348,830.874581 182.25879,830.873267 C182.937846,830.754241 183.615461,830.648695 184.237468,830.805812 C184.237918,830.805947 184.238413,830.805678 184.238863,830.805812 C184.891647,830.977761 185.458939,831.431546 186.098093,831.821854 C186.099218,831.822546 186.099757,831.823972 186.100882,831.824664 L186.100882,831.823261 C186.525138,832.092472 187.01554,832.356088 187.582081,832.375549 L187.582081,832.376952 C187.58397,832.376997 187.585814,832.376907 187.587702,832.376952 C188.015615,832.401189 188.435612,832.373998 188.845455,832.346035 C188.847798,832.346072 188.850141,832.346072 188.852484,832.346035 C189.203421,832.311273 189.544154,832.194485 189.841824,832.003139 C189.846051,832.000733 189.85026,831.998526 189.85447,831.996112 C190.526555,831.611014 191.123784,831.146973 191.778345,830.856404 C191.779289,830.856044 191.780234,830.855338 191.781133,830.855001 C191.993428,830.778031 192.258665,830.782371 192.554055,830.76225 C192.556843,830.76216 192.559676,830.76234 192.562487,830.76225 C193.104497,830.745517 193.647537,830.774578 194.185621,830.846569 C194.20426,830.848916 194.223194,830.848916 194.241833,830.846569 C194.312499,830.838186 194.389735,830.790736 194.427335,830.742576 C194.464934,830.694415 194.475767,830.655191 194.483547,830.62734 C194.499116,830.571638 194.513542,830.544999 194.487774,830.590802 C194.495946,830.576589 194.502556,830.561479 194.507449,830.545832 C194.606252,830.218449 194.66001,829.922189 194.819428,829.737777 C194.891061,829.667752 195.014328,829.632599 195.153893,829.635189 C195.164214,829.635414 195.174552,829.634964 195.18481,829.633786 C195.652606,829.578413 196.07545,829.409523 196.476294,829.265594 C196.481041,829.263876 196.485731,829.262001 196.490352,829.259971 C196.639261,829.195061 196.861143,829.12058 197.013128,828.907237 C197.013938,828.906095 197.015107,828.905578 197.015916,828.904427 L197.014522,828.903024 C197.142363,828.72438 197.083012,828.479195 196.902097,828.367599 L196.904885,828.364789 C196.899152,828.36089 196.89376,828.358675 196.888022,828.354952 C196.886493,828.354115 196.885368,828.352955 196.883794,828.352141 L196.883794,828.353544 C196.666774,828.214134 196.44933,828.194759 196.311834,828.144152 C196.309042,828.143159 196.306231,828.142223 196.303403,828.141342 C195.373099,827.842935 194.568559,827.200519 193.967773,826.418428 C193.634221,825.982611 193.352138,825.509044 193.165337,825.003279 C193.164707,825.001435 193.164528,824.999501 193.163943,824.997657 C193.090813,824.778045 193.087148,824.538558 193.19486,824.393373 C193.196285,824.391988 193.197697,824.390585 193.199087,824.389159 C193.367122,824.147743 193.675477,823.992578 194.004333,823.870599 C194.005682,823.870131 194.007211,823.869663 194.008561,823.869196 C194.372004,823.742759 194.769736,823.595469 195.097676,823.30426 C195.099106,823.302875 195.100513,823.301472 195.101903,823.300046 C195.152643,823.252065 195.213662,823.189599 195.259298,823.096276 C195.304938,823.002953 195.326578,822.857471 195.266327,822.730895 C195.266328,822.730427 195.266328,822.729959 195.266327,822.729492 C195.171692,822.534524 195.00667,822.434209 194.884082,822.3613 C194.883618,822.361298 194.883151,822.361298 194.882688,822.3613 C194.677296,822.241413 194.438312,822.233636 194.230622,822.300871 C194.230173,822.301006 194.229678,822.300736 194.229228,822.300871 C194.227834,822.301325 194.226395,822.301816 194.225001,822.302274 C194.000637,822.370554 193.817465,822.4522 193.647415,822.473722 C193.643642,822.474563 193.639896,822.475499 193.636173,822.476533 C193.394518,822.519604 193.160512,822.529948 192.978487,822.46248 C192.976778,822.435206 192.975923,822.381978 192.968652,822.316327 L192.970046,822.316327 C192.956609,821.915406 192.990575,821.502099 192.996744,821.074031 C192.996758,821.073078 192.996731,821.072174 192.996744,821.07122 C193.015236,820.420811 193.041481,819.751218 192.946153,819.077081 C192.945748,819.073794 192.945294,819.070513 192.944759,819.067244 C192.737205,817.930064 192.014465,816.950625 191.098178,816.298778 C190.432078,815.826149 189.641276,815.562358 188.838435,815.487913 C188.837986,815.487868 188.837491,815.487958 188.837041,815.487913 C188.567617,815.460712 188.298566,815.451062 188.030392,815.454185 L188.030412,815.454178 Z" id="snap" sketch:type="MSShapeGroup"></path>
        </g>
    </g>
</svg>