<?xml version="1.0" encoding="UTF-8" standalone="no"?>
<svg width="30px" height="30px" viewBox="0 0 30 30" version="1.1" xmlns="http://www.w3.org/2000/svg" xmlns:xlink="http://www.w3.org/1999/xlink" xmlns:sketch="http://www.bohemiancoding.com/sketch/ns">
    <!-- Generator: Sketch 3.2.2 (9983) - http://www.bohemiancoding.com/sketch -->
    <title>tinder</title>
    <desc>Created with Sketch.</desc>
    <defs></defs>
    <g id="Welcome" stroke="none" stroke-width="1" fill="none" fill-rule="evenodd" sketch:type="MSPage">
        <g id="Desktop-HD" sketch:type="MSArtboardGroup" transform="translate(-210.000000, -809.000000)" fill="#AFAAC1" opacity="0.5">
            <path d="M225,839 C233.284271,839 240,832.284271 240,824 C240,815.715729 233.284271,809 225,809 C216.715729,809 210,815.715729 210,824 C210,832.284271 216.715729,839 225,839 Z M220.481736,820.489039 C220.891387,819.875839 221.315117,819.31902 221.804106,818.751449 L222.210317,818.279906 L222.249881,818.70078 C222.31194,819.360953 222.401883,819.721347 222.607637,820.134559 C222.736749,820.393817 222.948375,820.671891 223.040174,820.753135 C223.110675,820.815497 223.077487,820.850642 223.432777,820.672764 C225.771052,819.4131 226.012355,817.356104 225.880785,815.587333 C225.834934,815.06781 225.718817,814.489218 225.575055,814.063842 C225.519816,813.900344 225.488451,813.771186 225.505368,813.776831 C225.522286,813.782207 225.81359,814.054501 226.152777,814.381295 C229.396038,817.506636 231.15105,820.779881 231.379119,824.128998 C231.449855,827.967467 229.234553,830.013847 226.00868,830.448832 C223.256398,830.868832 221.354584,830.236144 219.881497,828.810492 C218.008008,826.935006 218.229802,823.860198 220.481736,820.489039 Z" id="tinder" sketch:type="MSShapeGroup"></path>
        </g>
    </g>
</svg>