<?xml version="1.0" encoding="UTF-8" standalone="no"?>
<svg width="30px" height="31px" viewBox="0 0 30 31" version="1.1" xmlns="http://www.w3.org/2000/svg" xmlns:xlink="http://www.w3.org/1999/xlink" xmlns:sketch="http://www.bohemiancoding.com/sketch/ns">
    <!-- Generator: Sketch 3.2.2 (9983) - http://www.bohemiancoding.com/sketch -->
    <title>tumblr</title>
    <desc>Created with Sketch.</desc>
    <defs></defs>
    <g id="Welcome" stroke="none" stroke-width="1" fill="none" fill-rule="evenodd" sketch:type="MSPage">
        <g id="Desktop-HD" sketch:type="MSArtboardGroup" transform="translate(-285.000000, -808.000000)" fill="#AFAAC1" opacity="0.5">
            <path d="M300,808.799999 C291.715736,808.799999 285,815.515735 285,823.799999 C285,832.085481 291.715127,838.799999 300,838.799999 C308.285482,838.799999 315,832.085481 315,823.799999 C315,815.515735 308.284873,808.799999 300,808.799999 L300,808.799999 Z M305.230051,832.098273 C304.423553,832.476547 303.693198,832.744568 303.038376,832.897461 C302.382944,833.050964 301.676345,833.127106 300.916142,833.127106 C300.052386,833.127106 299.543147,833.018679 298.879188,832.802436 C298.216447,832.583756 297.649949,832.270659 297.182741,831.869847 C296.713096,831.46538 296.389036,831.03472 296.206904,830.581522 C296.02599,830.127106 295.935838,829.46802 295.935838,828.603045 L295.935838,821.979898 L293.370152,821.979898 L293.370152,819.305177 C294.112081,819.064568 294.972183,818.718578 295.499695,818.268426 C296.031472,817.817664 296.454822,817.27736 296.775228,816.645685 C297.095025,816.016446 297.316751,815.214212 297.436751,814.238984 L300.123046,814.238984 L300.123046,818.608933 L304.48934,818.608933 L304.48934,821.979898 L300.123046,821.979898 L300.123046,826.823146 C300.123046,827.918984 300.109036,828.550659 300.224162,828.860101 C300.339289,829.169542 300.628629,829.490558 300.944162,829.676344 C301.363249,829.926091 301.838985,830.052182 302.378071,830.052182 C303.334416,830.052182 304.285279,829.740304 305.231269,829.119593 L305.231269,832.098273 L305.230051,832.098273 Z" id="tumblr" sketch:type="MSShapeGroup"></path>
        </g>
    </g>
</svg>